<svg xmlns="http://www.w3.org/2000/svg" width="142.37" height="35" viewBox="0 0 142.37 35"><rect class="svg__rect" x="0" y="0" width="91.76" height="35" fill="#555555"/><rect class="svg__rect" x="89.76" y="0" width="52.61" height="35" fill="#007EC6"/><path class="svg__text" d="M19.57 22L14.22 22L14.22 13.47L15.70 13.47L15.70 20.82L19.57 20.82L19.57 22ZM25.26 22L23.79 22L23.79 13.47L25.26 13.47L25.26 22ZM29.80 18.19L29.80 18.19L29.80 17.39Q29.80 16.19 30.23 15.27Q30.66 14.35 31.46 13.85Q32.26 13.35 33.31 13.35L33.31 13.35Q34.72 13.35 35.58 14.12Q36.44 14.89 36.58 16.29L36.58 16.29L35.11 16.29Q35.00 15.37 34.57 14.96Q34.14 14.55 33.31 14.55L33.31 14.55Q32.34 14.55 31.82 15.26Q31.30 15.96 31.29 17.33L31.29 17.33L31.29 18.09Q31.29 19.47 31.79 20.20Q32.28 20.92 33.24 20.92L33.24 20.92Q34.11 20.92 34.55 20.53Q34.99 20.14 35.11 19.22L35.11 19.22L36.58 19.22Q36.45 20.59 35.57 21.35Q34.70 22.12 33.24 22.12L33.24 22.12Q32.22 22.12 31.44 21.63Q30.66 21.15 30.24 20.26Q29.82 19.37 29.80 18.19ZM46.47 22L40.89 22L40.89 13.47L46.43 13.47L46.43 14.66L42.38 14.66L42.38 17.02L45.88 17.02L45.88 18.19L42.38 18.19L42.38 20.82L46.47 20.82L46.47 22ZM52.15 22L50.67 22L50.67 13.47L52.15 13.47L55.97 19.54L55.97 13.47L57.44 13.47L57.44 22L55.95 22L52.15 15.95L52.15 22ZM61.74 19.42L61.74 19.42L63.23 19.42Q63.23 20.15 63.71 20.55Q64.19 20.95 65.08 20.95L65.08 20.95Q65.86 20.95 66.25 20.63Q66.64 20.32 66.64 19.80L66.64 19.80Q66.64 19.24 66.24 18.94Q65.84 18.63 64.81 18.32Q63.78 18.01 63.17 17.63L63.17 17.63Q62.01 16.90 62.01 15.72L62.01 15.72Q62.01 14.69 62.85 14.02Q63.69 13.35 65.03 13.35L65.03 13.35Q65.92 13.35 66.62 13.68Q67.31 14.01 67.71 14.61Q68.11 15.22 68.11 15.96L68.11 15.96L66.64 15.96Q66.64 15.29 66.22 14.91Q65.80 14.54 65.02 14.54L65.02 14.54Q64.29 14.54 63.89 14.85Q63.49 15.16 63.49 15.71L63.49 15.71Q63.49 16.18 63.92 16.50Q64.36 16.81 65.35 17.10Q66.35 17.40 66.95 17.78Q67.56 18.16 67.84 18.65Q68.12 19.13 68.12 19.79L68.12 19.79Q68.12 20.86 67.30 21.49Q66.48 22.12 65.08 22.12L65.08 22.12Q64.16 22.12 63.38 21.77Q62.60 21.43 62.17 20.83Q61.74 20.22 61.74 19.42ZM77.98 22L72.41 22L72.41 13.47L77.94 13.47L77.94 14.66L73.89 14.66L73.89 17.02L77.39 17.02L77.39 18.19L73.89 18.19L73.89 20.82L77.98 20.82L77.98 22Z" fill="#FFFFFF"/><path class="svg__text" d="M106.33 22L103.95 22L103.95 13.60L106.33 13.60L106.33 22ZM110.91 21.24L110.91 21.24L111.69 19.49Q112.26 19.86 113.00 20.09Q113.74 20.32 114.47 20.32L114.47 20.32Q115.83 20.32 115.84 19.64L115.84 19.64Q115.84 19.28 115.45 19.11Q115.06 18.93 114.19 18.74L114.19 18.74Q113.24 18.53 112.61 18.30Q111.97 18.06 111.52 17.55Q111.06 17.03 111.06 16.16L111.06 16.16Q111.06 15.39 111.48 14.77Q111.90 14.15 112.73 13.79Q113.57 13.43 114.78 13.43L114.78 13.43Q115.60 13.43 116.41 13.62Q117.21 13.80 117.83 14.17L117.83 14.17L117.10 15.93Q115.90 15.28 114.76 15.28L114.76 15.28Q114.06 15.28 113.73 15.49Q113.41 15.70 113.41 16.04L113.41 16.04Q113.41 16.37 113.79 16.54Q114.18 16.71 115.03 16.89L115.03 16.89Q115.99 17.10 116.62 17.33Q117.25 17.56 117.71 18.07Q118.17 18.58 118.17 19.46L118.17 19.46Q118.17 20.21 117.76 20.83Q117.34 21.44 116.50 21.80Q115.65 22.17 114.45 22.17L114.45 22.17Q113.43 22.17 112.47 21.92Q111.51 21.67 110.91 21.24ZM122.32 17.80L122.32 17.80Q122.32 16.54 122.92 15.54Q123.52 14.55 124.57 13.99Q125.62 13.43 126.94 13.43L126.94 13.43Q128.09 13.43 129.02 13.84Q129.94 14.25 130.56 15.02L130.56 15.02L129.04 16.39Q128.23 15.40 127.06 15.40L127.06 15.40Q126.38 15.40 125.84 15.70Q125.31 16 125.02 16.54Q124.72 17.09 124.72 17.80L124.72 17.80Q124.72 18.51 125.02 19.05Q125.31 19.60 125.84 19.90Q126.38 20.20 127.06 20.20L127.06 20.20Q128.23 20.20 129.04 19.22L129.04 19.22L130.56 20.58Q129.95 21.35 129.02 21.76Q128.09 22.17 126.94 22.17L126.94 22.17Q125.62 22.17 124.57 21.61Q123.52 21.05 122.92 20.05Q122.32 19.06 122.32 17.80Z" fill="#FFFFFF" x="102.76"/></svg>