<?xml version="1.0" encoding="UTF-8" standalone="no"?>
<!-- Created with Inkscape (http://www.inkscape.org/) -->

<svg
   width="163.83157mm"
   height="270.93335mm"
   viewBox="0 0 163.83157 270.93335"
   version="1.1"
   id="svg1"
   xml:space="preserve"
   inkscape:export-filename="favicon-folder.svg"
   inkscape:export-xdpi="96"
   inkscape:export-ydpi="96"
   xmlns:inkscape="http://www.inkscape.org/namespaces/inkscape"
   xmlns:sodipodi="http://sodipodi.sourceforge.net/DTD/sodipodi-0.dtd"
   xmlns="http://www.w3.org/2000/svg"
   xmlns:svg="http://www.w3.org/2000/svg"><sodipodi:namedview
     id="namedview1"
     pagecolor="#ffffff"
     bordercolor="#000000"
     borderopacity="0.25"
     inkscape:showpageshadow="2"
     inkscape:pageopacity="0.0"
     inkscape:pagecheckerboard="0"
     inkscape:deskcolor="#d1d1d1"
     inkscape:document-units="mm"
     inkscape:zoom="0.22850379"
     inkscape:cx="89.714049"
     inkscape:cy="759.28719"
     inkscape:window-width="1366"
     inkscape:window-height="705"
     inkscape:window-x="315"
     inkscape:window-y="1072"
     inkscape:window-maximized="1"
     inkscape:current-layer="layer1" /><defs
     id="defs1" /><g
     inkscape:label="Vrstva 1"
     inkscape:groupmode="layer"
     id="layer1"
     transform="translate(-23.084208,-13.03333)"><path
       d="m 23.084208,46.899995 c 0,-18.679583 12.244704,-33.866666 27.305264,-33.866666 h 68.263168 v 67.733334 c 0,9.366251 6.10102,16.933333 13.65262,16.933333 h 54.61053 V 250.09999 c 0,18.67958 -12.2447,33.86668 -27.30526,33.86668 H 50.389472 c -15.06056,0 -27.305264,-15.1871 -27.305264,-33.86668 z M 186.91579,80.766663 H 132.30526 V 13.033329 Z"
       id="path1"
       style="fill:#800080;stroke-width:0.475148" /><path
       d="m 105.16935,189.13251 a 27.30531,33.866725 0 1 0 0,-67.73345 27.30531,33.866725 0 1 0 0,67.73345 z m -9.748835,12.7 c -21.012253,0 -38.035378,21.11375 -38.035378,47.17521 0,4.33917 2.837187,7.85813 6.335674,7.85813 h 82.897069 c 3.49849,0 6.33567,-3.51896 6.33567,-7.85813 0,-26.06146 -17.02312,-47.17521 -38.03537,-47.17521 z"
       id="path1-6"
       style="fill:#ffffff;stroke-width:0.237574" /></g></svg>
