<?xml version="1.0" encoding="UTF-8" standalone="no"?>
<!-- Created with Inkscape (http://www.inkscape.org/) -->

<svg
   width="182.35789mm"
   height="270.93335mm"
   viewBox="0 0 182.35789 270.93335"
   version="1.1"
   id="svg1"
   xml:space="preserve"
   inkscape:export-filename="favicon-folder.svg"
   inkscape:export-xdpi="96"
   inkscape:export-ydpi="96"
   xmlns:inkscape="http://www.inkscape.org/namespaces/inkscape"
   xmlns:sodipodi="http://sodipodi.sourceforge.net/DTD/sodipodi-0.dtd"
   xmlns="http://www.w3.org/2000/svg"
   xmlns:svg="http://www.w3.org/2000/svg"><sodipodi:namedview
     id="namedview1"
     pagecolor="#ffffff"
     bordercolor="#000000"
     borderopacity="0.25"
     inkscape:showpageshadow="2"
     inkscape:pageopacity="0.0"
     inkscape:pagecheckerboard="0"
     inkscape:deskcolor="#d1d1d1"
     inkscape:document-units="mm"
     inkscape:zoom="0.22850379"
     inkscape:cx="89.714049"
     inkscape:cy="759.28719"
     inkscape:window-width="1366"
     inkscape:window-height="705"
     inkscape:window-x="315"
     inkscape:window-y="1072"
     inkscape:window-maximized="1"
     inkscape:current-layer="layer1" /><defs
     id="defs1" /><g
     inkscape:label="Vrstva 1"
     inkscape:groupmode="layer"
     id="layer1"
     transform="translate(-13.821049,-13.03333)"><path
       d="m 13.82105,46.899995 c 0,-18.679583 13.629353,-33.866666 30.392983,-33.866666 H 120.1965 v 67.733334 c 0,9.366251 6.79093,16.933333 15.19648,16.933333 h 60.78597 V 250.09999 c 0,18.67958 -13.62935,33.86668 -30.39298,33.86668 H 44.214033 c -16.76363,0 -30.392983,-15.1871 -30.392983,-33.86668 z m 182.3579,33.866668 H 135.39298 V 13.033329 Z"
       id="path1"
       style="fill:#800080;stroke-width:0.501294" /><path
       d="m 105.1885,189.13251 a 30.393035,33.866725 0 1 0 0,-67.73345 30.393035,33.866725 0 1 0 0,67.73345 z m -10.851247,12.7 c -23.38835,0 -42.336475,21.11375 -42.336475,47.17521 0,4.33917 3.158021,7.85813 7.052122,7.85813 h 92.27119 c 3.8941,0 7.05212,-3.51896 7.05212,-7.85813 0,-26.06146 -18.94812,-47.17521 -42.33647,-47.17521 z"
       id="path1-6"
       style="fill:#ffffff;stroke-width:0.250647" /></g></svg>
